<mxfile host="app.diagrams.net" agent="Mozilla/5.0 (Windows NT 10.0; Win64; x64) AppleWebKit/537.36 (KHTML, like Gecko) Chrome/136.0.0.0 Safari/537.36 Edg/136.0.0.0" version="27.0.6">
  <diagram id="C5RBs43oDa-KdzZeNtuy" name="Page-1">
    <mxGraphModel dx="3665" dy="1709" grid="0" gridSize="10" guides="1" tooltips="1" connect="1" arrows="1" fold="1" page="1" pageScale="1" pageWidth="827" pageHeight="1169" math="0" shadow="0">
      <root>
        <mxCell id="WIyWlLk6GJQsqaUBKTNV-0" />
        <mxCell id="WIyWlLk6GJQsqaUBKTNV-1" parent="WIyWlLk6GJQsqaUBKTNV-0" />
        <mxCell id="foYc1p1-t5M7blXoYfU2-0" value="Website bán đồng hồ" style="rounded=0;whiteSpace=wrap;html=1;" parent="WIyWlLk6GJQsqaUBKTNV-1" vertex="1">
          <mxGeometry x="270" y="-20" width="156" height="60" as="geometry" />
        </mxCell>
        <mxCell id="foYc1p1-t5M7blXoYfU2-1" value="Quản lý" style="rounded=0;whiteSpace=wrap;html=1;" parent="WIyWlLk6GJQsqaUBKTNV-1" vertex="1">
          <mxGeometry x="-60" y="110" width="156" height="60" as="geometry" />
        </mxCell>
        <mxCell id="foYc1p1-t5M7blXoYfU2-2" value="" style="edgeStyle=elbowEdgeStyle;elbow=vertical;endArrow=classic;html=1;curved=0;rounded=0;endSize=8;startSize=8;entryX=0.5;entryY=0;entryDx=0;entryDy=0;exitX=0.5;exitY=1;exitDx=0;exitDy=0;" parent="WIyWlLk6GJQsqaUBKTNV-1" source="foYc1p1-t5M7blXoYfU2-0" target="foYc1p1-t5M7blXoYfU2-1" edge="1">
          <mxGeometry width="50" height="50" relative="1" as="geometry">
            <mxPoint x="370" y="380" as="sourcePoint" />
            <mxPoint x="420" y="330" as="targetPoint" />
          </mxGeometry>
        </mxCell>
        <mxCell id="foYc1p1-t5M7blXoYfU2-3" value="" style="edgeStyle=elbowEdgeStyle;elbow=vertical;endArrow=classic;html=1;curved=0;rounded=0;endSize=8;startSize=8;exitX=0.5;exitY=1;exitDx=0;exitDy=0;entryX=0.5;entryY=0;entryDx=0;entryDy=0;" parent="WIyWlLk6GJQsqaUBKTNV-1" source="foYc1p1-t5M7blXoYfU2-0" target="foYc1p1-t5M7blXoYfU2-16" edge="1">
          <mxGeometry width="50" height="50" relative="1" as="geometry">
            <mxPoint x="358" y="50" as="sourcePoint" />
            <mxPoint x="610" y="110" as="targetPoint" />
          </mxGeometry>
        </mxCell>
        <mxCell id="foYc1p1-t5M7blXoYfU2-4" value="Quản lý hàng hóa" style="rounded=0;whiteSpace=wrap;html=1;" parent="WIyWlLk6GJQsqaUBKTNV-1" vertex="1">
          <mxGeometry x="-1660" y="270" width="156" height="60" as="geometry" />
        </mxCell>
        <mxCell id="foYc1p1-t5M7blXoYfU2-5" value="" style="edgeStyle=elbowEdgeStyle;elbow=vertical;endArrow=classic;html=1;curved=0;rounded=0;endSize=8;startSize=8;entryX=0.5;entryY=0;entryDx=0;entryDy=0;exitX=0.5;exitY=1;exitDx=0;exitDy=0;" parent="WIyWlLk6GJQsqaUBKTNV-1" source="foYc1p1-t5M7blXoYfU2-1" target="foYc1p1-t5M7blXoYfU2-4" edge="1">
          <mxGeometry width="50" height="50" relative="1" as="geometry">
            <mxPoint x="270" y="220" as="sourcePoint" />
            <mxPoint x="-280" y="440" as="targetPoint" />
          </mxGeometry>
        </mxCell>
        <mxCell id="foYc1p1-t5M7blXoYfU2-6" value="Quản lý khách hàng" style="rounded=0;whiteSpace=wrap;html=1;" parent="WIyWlLk6GJQsqaUBKTNV-1" vertex="1">
          <mxGeometry x="-1130" y="280" width="156" height="60" as="geometry" />
        </mxCell>
        <mxCell id="foYc1p1-t5M7blXoYfU2-8" value="" style="edgeStyle=elbowEdgeStyle;elbow=vertical;endArrow=classic;html=1;curved=0;rounded=0;endSize=8;startSize=8;entryX=0.5;entryY=0;entryDx=0;entryDy=0;exitX=0.5;exitY=1;exitDx=0;exitDy=0;" parent="WIyWlLk6GJQsqaUBKTNV-1" source="foYc1p1-t5M7blXoYfU2-1" target="foYc1p1-t5M7blXoYfU2-6" edge="1">
          <mxGeometry width="50" height="50" relative="1" as="geometry">
            <mxPoint x="28" y="180" as="sourcePoint" />
            <mxPoint x="-352" y="270" as="targetPoint" />
          </mxGeometry>
        </mxCell>
        <mxCell id="foYc1p1-t5M7blXoYfU2-9" value="Quản lý đơn hàng" style="rounded=0;whiteSpace=wrap;html=1;" parent="WIyWlLk6GJQsqaUBKTNV-1" vertex="1">
          <mxGeometry x="-920" y="280" width="156" height="60" as="geometry" />
        </mxCell>
        <mxCell id="foYc1p1-t5M7blXoYfU2-12" value="Quản lý thông tin sản phẩm" style="rounded=0;whiteSpace=wrap;html=1;" parent="WIyWlLk6GJQsqaUBKTNV-1" vertex="1">
          <mxGeometry x="-520" y="280" width="156" height="60" as="geometry" />
        </mxCell>
        <mxCell id="foYc1p1-t5M7blXoYfU2-15" value="Thống kê, báo cáo" style="rounded=0;whiteSpace=wrap;html=1;" parent="WIyWlLk6GJQsqaUBKTNV-1" vertex="1">
          <mxGeometry x="-200" y="280" width="156" height="60" as="geometry" />
        </mxCell>
        <mxCell id="foYc1p1-t5M7blXoYfU2-16" value="Khách hàng" style="rounded=0;whiteSpace=wrap;html=1;" parent="WIyWlLk6GJQsqaUBKTNV-1" vertex="1">
          <mxGeometry x="620" y="110" width="156" height="60" as="geometry" />
        </mxCell>
        <mxCell id="foYc1p1-t5M7blXoYfU2-17" value="" style="edgeStyle=elbowEdgeStyle;elbow=vertical;endArrow=classic;html=1;curved=0;rounded=0;endSize=8;startSize=8;exitX=0.5;exitY=1;exitDx=0;exitDy=0;entryX=0.5;entryY=0;entryDx=0;entryDy=0;" parent="WIyWlLk6GJQsqaUBKTNV-1" source="foYc1p1-t5M7blXoYfU2-4" target="foYc1p1-t5M7blXoYfU2-19" edge="1">
          <mxGeometry width="50" height="50" relative="1" as="geometry">
            <mxPoint x="-860" y="550" as="sourcePoint" />
            <mxPoint x="-1510" y="390" as="targetPoint" />
          </mxGeometry>
        </mxCell>
        <mxCell id="foYc1p1-t5M7blXoYfU2-18" value="Theo dõi hàng tồn kho" style="rounded=0;whiteSpace=wrap;html=1;" parent="WIyWlLk6GJQsqaUBKTNV-1" vertex="1">
          <mxGeometry x="-1830" y="390" width="156" height="60" as="geometry" />
        </mxCell>
        <mxCell id="foYc1p1-t5M7blXoYfU2-19" value="Quản lý hàng nhập" style="rounded=0;whiteSpace=wrap;html=1;" parent="WIyWlLk6GJQsqaUBKTNV-1" vertex="1">
          <mxGeometry x="-1660" y="390" width="156" height="60" as="geometry" />
        </mxCell>
        <mxCell id="foYc1p1-t5M7blXoYfU2-20" value="" style="edgeStyle=elbowEdgeStyle;elbow=vertical;endArrow=classic;html=1;curved=0;rounded=0;endSize=8;startSize=8;exitX=0.5;exitY=1;exitDx=0;exitDy=0;entryX=0.5;entryY=0;entryDx=0;entryDy=0;" parent="WIyWlLk6GJQsqaUBKTNV-1" source="foYc1p1-t5M7blXoYfU2-4" target="foYc1p1-t5M7blXoYfU2-18" edge="1">
          <mxGeometry width="50" height="50" relative="1" as="geometry">
            <mxPoint x="-1070" y="430" as="sourcePoint" />
            <mxPoint x="-1582" y="390" as="targetPoint" />
          </mxGeometry>
        </mxCell>
        <mxCell id="foYc1p1-t5M7blXoYfU2-21" value="Ghi nhận giao dịch" style="rounded=0;whiteSpace=wrap;html=1;" parent="WIyWlLk6GJQsqaUBKTNV-1" vertex="1">
          <mxGeometry x="-1490" y="390" width="156" height="60" as="geometry" />
        </mxCell>
        <mxCell id="foYc1p1-t5M7blXoYfU2-22" value="" style="edgeStyle=elbowEdgeStyle;elbow=vertical;endArrow=classic;html=1;curved=0;rounded=0;endSize=8;startSize=8;exitX=0.5;exitY=1;exitDx=0;exitDy=0;entryX=0.5;entryY=0;entryDx=0;entryDy=0;" parent="WIyWlLk6GJQsqaUBKTNV-1" source="foYc1p1-t5M7blXoYfU2-4" target="foYc1p1-t5M7blXoYfU2-21" edge="1">
          <mxGeometry width="50" height="50" relative="1" as="geometry">
            <mxPoint x="-1112" y="340" as="sourcePoint" />
            <mxPoint x="-1510" y="390" as="targetPoint" />
          </mxGeometry>
        </mxCell>
        <mxCell id="foYc1p1-t5M7blXoYfU2-23" value="Lưu trữ thông tin khách hàng" style="rounded=0;whiteSpace=wrap;html=1;" parent="WIyWlLk6GJQsqaUBKTNV-1" vertex="1">
          <mxGeometry x="-1300" y="390" width="156" height="60" as="geometry" />
        </mxCell>
        <mxCell id="foYc1p1-t5M7blXoYfU2-25" value="" style="edgeStyle=elbowEdgeStyle;elbow=vertical;endArrow=classic;html=1;curved=0;rounded=0;endSize=8;startSize=8;exitX=0.5;exitY=1;exitDx=0;exitDy=0;entryX=0.5;entryY=0;entryDx=0;entryDy=0;" parent="WIyWlLk6GJQsqaUBKTNV-1" source="foYc1p1-t5M7blXoYfU2-6" target="foYc1p1-t5M7blXoYfU2-23" edge="1">
          <mxGeometry width="50" height="50" relative="1" as="geometry">
            <mxPoint x="-1102" y="350" as="sourcePoint" />
            <mxPoint x="-1152" y="400" as="targetPoint" />
          </mxGeometry>
        </mxCell>
        <mxCell id="foYc1p1-t5M7blXoYfU2-26" value="Quản lý tài khoản" style="rounded=0;whiteSpace=wrap;html=1;" parent="WIyWlLk6GJQsqaUBKTNV-1" vertex="1">
          <mxGeometry x="-1130" y="390" width="156" height="60" as="geometry" />
        </mxCell>
        <mxCell id="foYc1p1-t5M7blXoYfU2-27" value="" style="edgeStyle=elbowEdgeStyle;elbow=vertical;endArrow=classic;html=1;curved=0;rounded=0;endSize=8;startSize=8;exitX=0.5;exitY=1;exitDx=0;exitDy=0;entryX=0.5;entryY=0;entryDx=0;entryDy=0;" parent="WIyWlLk6GJQsqaUBKTNV-1" source="foYc1p1-t5M7blXoYfU2-6" target="foYc1p1-t5M7blXoYfU2-26" edge="1">
          <mxGeometry width="50" height="50" relative="1" as="geometry">
            <mxPoint x="-1042" y="350" as="sourcePoint" />
            <mxPoint x="-1192" y="400" as="targetPoint" />
          </mxGeometry>
        </mxCell>
        <mxCell id="foYc1p1-t5M7blXoYfU2-28" value="Kiểm tra thông tin đơn hàng" style="rounded=0;whiteSpace=wrap;html=1;" parent="WIyWlLk6GJQsqaUBKTNV-1" vertex="1">
          <mxGeometry x="-960" y="390" width="156" height="60" as="geometry" />
        </mxCell>
        <mxCell id="foYc1p1-t5M7blXoYfU2-29" value="" style="edgeStyle=elbowEdgeStyle;elbow=vertical;endArrow=classic;html=1;curved=0;rounded=0;endSize=8;startSize=8;exitX=0.5;exitY=1;exitDx=0;exitDy=0;entryX=0.5;entryY=0;entryDx=0;entryDy=0;" parent="WIyWlLk6GJQsqaUBKTNV-1" source="foYc1p1-t5M7blXoYfU2-9" target="foYc1p1-t5M7blXoYfU2-28" edge="1">
          <mxGeometry width="50" height="50" relative="1" as="geometry">
            <mxPoint x="-1042" y="350" as="sourcePoint" />
            <mxPoint x="-1042" y="400" as="targetPoint" />
          </mxGeometry>
        </mxCell>
        <mxCell id="foYc1p1-t5M7blXoYfU2-30" value="Theo dõi trạng thái đơn hàng" style="rounded=0;whiteSpace=wrap;html=1;" parent="WIyWlLk6GJQsqaUBKTNV-1" vertex="1">
          <mxGeometry x="-780" y="390" width="156" height="60" as="geometry" />
        </mxCell>
        <mxCell id="foYc1p1-t5M7blXoYfU2-31" value="" style="edgeStyle=elbowEdgeStyle;elbow=vertical;endArrow=classic;html=1;curved=0;rounded=0;endSize=8;startSize=8;entryX=0.5;entryY=0;entryDx=0;entryDy=0;exitX=0.5;exitY=1;exitDx=0;exitDy=0;" parent="WIyWlLk6GJQsqaUBKTNV-1" source="foYc1p1-t5M7blXoYfU2-9" target="foYc1p1-t5M7blXoYfU2-30" edge="1">
          <mxGeometry width="50" height="50" relative="1" as="geometry">
            <mxPoint x="-820" y="360" as="sourcePoint" />
            <mxPoint x="-872" y="400" as="targetPoint" />
          </mxGeometry>
        </mxCell>
        <mxCell id="foYc1p1-t5M7blXoYfU2-32" value="Thêm, sửa, xóa thông tin sản phẩm" style="rounded=0;whiteSpace=wrap;html=1;" parent="WIyWlLk6GJQsqaUBKTNV-1" vertex="1">
          <mxGeometry x="-600" y="390" width="156" height="60" as="geometry" />
        </mxCell>
        <mxCell id="foYc1p1-t5M7blXoYfU2-33" value="Cập nhật hình ảnh, mô tả của sản phẩm" style="rounded=0;whiteSpace=wrap;html=1;" parent="WIyWlLk6GJQsqaUBKTNV-1" vertex="1">
          <mxGeometry x="-430" y="390" width="156" height="60" as="geometry" />
        </mxCell>
        <mxCell id="foYc1p1-t5M7blXoYfU2-34" value="" style="edgeStyle=elbowEdgeStyle;elbow=vertical;endArrow=classic;html=1;curved=0;rounded=0;endSize=8;startSize=8;entryX=0.5;entryY=0;entryDx=0;entryDy=0;exitX=0.5;exitY=1;exitDx=0;exitDy=0;" parent="WIyWlLk6GJQsqaUBKTNV-1" source="foYc1p1-t5M7blXoYfU2-12" target="foYc1p1-t5M7blXoYfU2-32" edge="1">
          <mxGeometry width="50" height="50" relative="1" as="geometry">
            <mxPoint x="-832" y="350" as="sourcePoint" />
            <mxPoint x="-692" y="400" as="targetPoint" />
          </mxGeometry>
        </mxCell>
        <mxCell id="foYc1p1-t5M7blXoYfU2-35" value="" style="edgeStyle=elbowEdgeStyle;elbow=vertical;endArrow=classic;html=1;curved=0;rounded=0;endSize=8;startSize=8;entryX=0.5;entryY=0;entryDx=0;entryDy=0;exitX=0.5;exitY=1;exitDx=0;exitDy=0;" parent="WIyWlLk6GJQsqaUBKTNV-1" source="foYc1p1-t5M7blXoYfU2-12" target="foYc1p1-t5M7blXoYfU2-33" edge="1">
          <mxGeometry width="50" height="50" relative="1" as="geometry">
            <mxPoint x="-822" y="360" as="sourcePoint" />
            <mxPoint x="-682" y="410" as="targetPoint" />
          </mxGeometry>
        </mxCell>
        <mxCell id="foYc1p1-t5M7blXoYfU2-36" value="Thống kê hàng nhập, bán, tồn kho" style="rounded=0;whiteSpace=wrap;html=1;" parent="WIyWlLk6GJQsqaUBKTNV-1" vertex="1">
          <mxGeometry x="-260" y="390" width="156" height="60" as="geometry" />
        </mxCell>
        <mxCell id="foYc1p1-t5M7blXoYfU2-37" value="Báo cáo doanh thu" style="rounded=0;whiteSpace=wrap;html=1;" parent="WIyWlLk6GJQsqaUBKTNV-1" vertex="1">
          <mxGeometry x="-90" y="390" width="156" height="60" as="geometry" />
        </mxCell>
        <mxCell id="foYc1p1-t5M7blXoYfU2-38" value="" style="edgeStyle=elbowEdgeStyle;elbow=vertical;endArrow=classic;html=1;curved=0;rounded=0;endSize=8;startSize=8;entryX=0.5;entryY=0;entryDx=0;entryDy=0;exitX=0.5;exitY=1;exitDx=0;exitDy=0;" parent="WIyWlLk6GJQsqaUBKTNV-1" source="foYc1p1-t5M7blXoYfU2-15" target="foYc1p1-t5M7blXoYfU2-37" edge="1">
          <mxGeometry width="50" height="50" relative="1" as="geometry">
            <mxPoint x="-432" y="350" as="sourcePoint" />
            <mxPoint x="-512" y="400" as="targetPoint" />
          </mxGeometry>
        </mxCell>
        <mxCell id="foYc1p1-t5M7blXoYfU2-39" value="" style="edgeStyle=elbowEdgeStyle;elbow=vertical;endArrow=classic;html=1;curved=0;rounded=0;endSize=8;startSize=8;entryX=0.5;entryY=0;entryDx=0;entryDy=0;exitX=0.5;exitY=1;exitDx=0;exitDy=0;" parent="WIyWlLk6GJQsqaUBKTNV-1" source="foYc1p1-t5M7blXoYfU2-15" target="foYc1p1-t5M7blXoYfU2-36" edge="1">
          <mxGeometry width="50" height="50" relative="1" as="geometry">
            <mxPoint x="-432" y="350" as="sourcePoint" />
            <mxPoint x="-342" y="400" as="targetPoint" />
          </mxGeometry>
        </mxCell>
        <mxCell id="foYc1p1-t5M7blXoYfU2-40" value="Thống kê sản phẩm bán chạy" style="rounded=0;whiteSpace=wrap;html=1;" parent="WIyWlLk6GJQsqaUBKTNV-1" vertex="1">
          <mxGeometry x="90" y="390" width="156" height="60" as="geometry" />
        </mxCell>
        <mxCell id="foYc1p1-t5M7blXoYfU2-41" value="" style="edgeStyle=elbowEdgeStyle;elbow=vertical;endArrow=classic;html=1;curved=0;rounded=0;endSize=8;startSize=8;entryX=0.5;entryY=0;entryDx=0;entryDy=0;exitX=0.5;exitY=1;exitDx=0;exitDy=0;" parent="WIyWlLk6GJQsqaUBKTNV-1" source="foYc1p1-t5M7blXoYfU2-15" target="foYc1p1-t5M7blXoYfU2-40" edge="1">
          <mxGeometry width="50" height="50" relative="1" as="geometry">
            <mxPoint x="-70" y="350" as="sourcePoint" />
            <mxPoint x="-2" y="400" as="targetPoint" />
          </mxGeometry>
        </mxCell>
        <mxCell id="foYc1p1-t5M7blXoYfU2-43" value="" style="edgeStyle=elbowEdgeStyle;elbow=vertical;endArrow=classic;html=1;curved=0;rounded=0;endSize=8;startSize=8;entryX=0.5;entryY=0;entryDx=0;entryDy=0;exitX=0.5;exitY=1;exitDx=0;exitDy=0;" parent="WIyWlLk6GJQsqaUBKTNV-1" source="foYc1p1-t5M7blXoYfU2-1" target="foYc1p1-t5M7blXoYfU2-9" edge="1">
          <mxGeometry width="50" height="50" relative="1" as="geometry">
            <mxPoint x="28" y="180" as="sourcePoint" />
            <mxPoint x="-1042" y="290" as="targetPoint" />
          </mxGeometry>
        </mxCell>
        <mxCell id="foYc1p1-t5M7blXoYfU2-44" value="" style="edgeStyle=elbowEdgeStyle;elbow=vertical;endArrow=classic;html=1;curved=0;rounded=0;endSize=8;startSize=8;entryX=0.5;entryY=0;entryDx=0;entryDy=0;exitX=0.5;exitY=1;exitDx=0;exitDy=0;" parent="WIyWlLk6GJQsqaUBKTNV-1" source="foYc1p1-t5M7blXoYfU2-1" target="foYc1p1-t5M7blXoYfU2-12" edge="1">
          <mxGeometry width="50" height="50" relative="1" as="geometry">
            <mxPoint x="38" y="190" as="sourcePoint" />
            <mxPoint x="-1032" y="300" as="targetPoint" />
          </mxGeometry>
        </mxCell>
        <mxCell id="foYc1p1-t5M7blXoYfU2-45" value="" style="edgeStyle=elbowEdgeStyle;elbow=vertical;endArrow=classic;html=1;curved=0;rounded=0;endSize=8;startSize=8;entryX=0.5;entryY=0;entryDx=0;entryDy=0;exitX=0.5;exitY=1;exitDx=0;exitDy=0;" parent="WIyWlLk6GJQsqaUBKTNV-1" source="foYc1p1-t5M7blXoYfU2-1" target="foYc1p1-t5M7blXoYfU2-15" edge="1">
          <mxGeometry width="50" height="50" relative="1" as="geometry">
            <mxPoint x="48" y="200" as="sourcePoint" />
            <mxPoint x="-1022" y="310" as="targetPoint" />
          </mxGeometry>
        </mxCell>
        <mxCell id="foYc1p1-t5M7blXoYfU2-46" value="Xem sản phẩm" style="rounded=0;whiteSpace=wrap;html=1;" parent="WIyWlLk6GJQsqaUBKTNV-1" vertex="1">
          <mxGeometry x="390" y="280" width="156" height="60" as="geometry" />
        </mxCell>
        <mxCell id="foYc1p1-t5M7blXoYfU2-47" value="Hiển thị chi tiết sản phẩm" style="rounded=0;whiteSpace=wrap;html=1;" parent="WIyWlLk6GJQsqaUBKTNV-1" vertex="1">
          <mxGeometry x="290" y="390" width="156" height="60" as="geometry" />
        </mxCell>
        <mxCell id="foYc1p1-t5M7blXoYfU2-51" value="Xem số lượng tồn kho" style="rounded=0;whiteSpace=wrap;html=1;" parent="WIyWlLk6GJQsqaUBKTNV-1" vertex="1">
          <mxGeometry x="464" y="390" width="156" height="60" as="geometry" />
        </mxCell>
        <mxCell id="foYc1p1-t5M7blXoYfU2-52" value="Thêm vào giỏ hàng" style="rounded=0;whiteSpace=wrap;html=1;" parent="WIyWlLk6GJQsqaUBKTNV-1" vertex="1">
          <mxGeometry x="590" y="280" width="156" height="60" as="geometry" />
        </mxCell>
        <mxCell id="foYc1p1-t5M7blXoYfU2-53" value="Đặt hàng" style="rounded=0;whiteSpace=wrap;html=1;" parent="WIyWlLk6GJQsqaUBKTNV-1" vertex="1">
          <mxGeometry x="930" y="280" width="156" height="60" as="geometry" />
        </mxCell>
        <mxCell id="foYc1p1-t5M7blXoYfU2-54" value="Xem chi tiết đơn hàng" style="rounded=0;whiteSpace=wrap;html=1;" parent="WIyWlLk6GJQsqaUBKTNV-1" vertex="1">
          <mxGeometry x="680" y="390" width="156" height="60" as="geometry" />
        </mxCell>
        <mxCell id="foYc1p1-t5M7blXoYfU2-55" value="Chọn hình thức thanh toán" style="rounded=0;whiteSpace=wrap;html=1;" parent="WIyWlLk6GJQsqaUBKTNV-1" vertex="1">
          <mxGeometry x="1044" y="390" width="156" height="60" as="geometry" />
        </mxCell>
        <mxCell id="foYc1p1-t5M7blXoYfU2-56" value="Xem lịch sử đơn đặt hàng" style="rounded=0;whiteSpace=wrap;html=1;" parent="WIyWlLk6GJQsqaUBKTNV-1" vertex="1">
          <mxGeometry x="1490" y="280" width="156" height="60" as="geometry" />
        </mxCell>
        <mxCell id="foYc1p1-t5M7blXoYfU2-57" value="Đổi trả" style="rounded=0;whiteSpace=wrap;html=1;" parent="WIyWlLk6GJQsqaUBKTNV-1" vertex="1">
          <mxGeometry x="1670" y="280" width="156" height="60" as="geometry" />
        </mxCell>
        <mxCell id="foYc1p1-t5M7blXoYfU2-58" value="Quản lý tài khoản" style="rounded=0;whiteSpace=wrap;html=1;" parent="WIyWlLk6GJQsqaUBKTNV-1" vertex="1">
          <mxGeometry x="1870" y="280" width="156" height="60" as="geometry" />
        </mxCell>
        <mxCell id="foYc1p1-t5M7blXoYfU2-59" value="Đăng ký" style="rounded=0;whiteSpace=wrap;html=1;" parent="WIyWlLk6GJQsqaUBKTNV-1" vertex="1">
          <mxGeometry x="1810" y="390" width="156" height="60" as="geometry" />
        </mxCell>
        <mxCell id="foYc1p1-t5M7blXoYfU2-60" value="Đăng nhập" style="rounded=0;whiteSpace=wrap;html=1;" parent="WIyWlLk6GJQsqaUBKTNV-1" vertex="1">
          <mxGeometry x="1990" y="390" width="156" height="60" as="geometry" />
        </mxCell>
        <mxCell id="foYc1p1-t5M7blXoYfU2-61" value="Đổi mật khẩu" style="rounded=0;whiteSpace=wrap;html=1;" parent="WIyWlLk6GJQsqaUBKTNV-1" vertex="1">
          <mxGeometry x="2160" y="390" width="156" height="60" as="geometry" />
        </mxCell>
        <mxCell id="foYc1p1-t5M7blXoYfU2-62" value="Đăng xuất" style="rounded=0;whiteSpace=wrap;html=1;" parent="WIyWlLk6GJQsqaUBKTNV-1" vertex="1">
          <mxGeometry x="2340" y="390" width="156" height="60" as="geometry" />
        </mxCell>
        <mxCell id="foYc1p1-t5M7blXoYfU2-63" value="" style="edgeStyle=elbowEdgeStyle;elbow=vertical;endArrow=classic;html=1;curved=0;rounded=0;endSize=8;startSize=8;exitX=0.5;exitY=1;exitDx=0;exitDy=0;entryX=0.5;entryY=0;entryDx=0;entryDy=0;" parent="WIyWlLk6GJQsqaUBKTNV-1" source="foYc1p1-t5M7blXoYfU2-16" target="foYc1p1-t5M7blXoYfU2-46" edge="1">
          <mxGeometry width="50" height="50" relative="1" as="geometry">
            <mxPoint x="358" y="50" as="sourcePoint" />
            <mxPoint x="708" y="120" as="targetPoint" />
          </mxGeometry>
        </mxCell>
        <mxCell id="foYc1p1-t5M7blXoYfU2-64" value="" style="edgeStyle=elbowEdgeStyle;elbow=vertical;endArrow=classic;html=1;curved=0;rounded=0;endSize=8;startSize=8;exitX=0.5;exitY=1;exitDx=0;exitDy=0;entryX=0.465;entryY=0.012;entryDx=0;entryDy=0;entryPerimeter=0;" parent="WIyWlLk6GJQsqaUBKTNV-1" source="foYc1p1-t5M7blXoYfU2-16" target="foYc1p1-t5M7blXoYfU2-52" edge="1">
          <mxGeometry width="50" height="50" relative="1" as="geometry">
            <mxPoint x="708" y="180" as="sourcePoint" />
            <mxPoint x="478" y="290" as="targetPoint" />
          </mxGeometry>
        </mxCell>
        <mxCell id="foYc1p1-t5M7blXoYfU2-65" value="" style="edgeStyle=elbowEdgeStyle;elbow=vertical;endArrow=classic;html=1;curved=0;rounded=0;endSize=8;startSize=8;exitX=0.5;exitY=1;exitDx=0;exitDy=0;entryX=0.5;entryY=0;entryDx=0;entryDy=0;" parent="WIyWlLk6GJQsqaUBKTNV-1" source="foYc1p1-t5M7blXoYfU2-16" target="foYc1p1-t5M7blXoYfU2-53" edge="1">
          <mxGeometry width="50" height="50" relative="1" as="geometry">
            <mxPoint x="718" y="190" as="sourcePoint" />
            <mxPoint x="488" y="300" as="targetPoint" />
          </mxGeometry>
        </mxCell>
        <mxCell id="foYc1p1-t5M7blXoYfU2-66" value="" style="edgeStyle=elbowEdgeStyle;elbow=vertical;endArrow=classic;html=1;curved=0;rounded=0;endSize=8;startSize=8;exitX=0.5;exitY=1;exitDx=0;exitDy=0;entryX=0.5;entryY=0;entryDx=0;entryDy=0;" parent="WIyWlLk6GJQsqaUBKTNV-1" source="foYc1p1-t5M7blXoYfU2-16" target="foYc1p1-t5M7blXoYfU2-56" edge="1">
          <mxGeometry width="50" height="50" relative="1" as="geometry">
            <mxPoint x="728" y="200" as="sourcePoint" />
            <mxPoint x="498" y="310" as="targetPoint" />
          </mxGeometry>
        </mxCell>
        <mxCell id="foYc1p1-t5M7blXoYfU2-67" value="" style="edgeStyle=elbowEdgeStyle;elbow=vertical;endArrow=classic;html=1;curved=0;rounded=0;endSize=8;startSize=8;exitX=0.5;exitY=1;exitDx=0;exitDy=0;entryX=0.5;entryY=0;entryDx=0;entryDy=0;" parent="WIyWlLk6GJQsqaUBKTNV-1" source="foYc1p1-t5M7blXoYfU2-16" target="foYc1p1-t5M7blXoYfU2-57" edge="1">
          <mxGeometry width="50" height="50" relative="1" as="geometry">
            <mxPoint x="708" y="180" as="sourcePoint" />
            <mxPoint x="1288" y="290" as="targetPoint" />
          </mxGeometry>
        </mxCell>
        <mxCell id="foYc1p1-t5M7blXoYfU2-68" value="" style="edgeStyle=elbowEdgeStyle;elbow=vertical;endArrow=classic;html=1;curved=0;rounded=0;endSize=8;startSize=8;exitX=0.5;exitY=1;exitDx=0;exitDy=0;entryX=0.5;entryY=0;entryDx=0;entryDy=0;" parent="WIyWlLk6GJQsqaUBKTNV-1" source="foYc1p1-t5M7blXoYfU2-16" target="foYc1p1-t5M7blXoYfU2-58" edge="1">
          <mxGeometry width="50" height="50" relative="1" as="geometry">
            <mxPoint x="718" y="190" as="sourcePoint" />
            <mxPoint x="1298" y="300" as="targetPoint" />
          </mxGeometry>
        </mxCell>
        <mxCell id="foYc1p1-t5M7blXoYfU2-69" value="" style="edgeStyle=elbowEdgeStyle;elbow=vertical;endArrow=classic;html=1;curved=0;rounded=0;endSize=8;startSize=8;exitX=0.5;exitY=1;exitDx=0;exitDy=0;entryX=0.5;entryY=0;entryDx=0;entryDy=0;" parent="WIyWlLk6GJQsqaUBKTNV-1" source="foYc1p1-t5M7blXoYfU2-46" target="foYc1p1-t5M7blXoYfU2-47" edge="1">
          <mxGeometry width="50" height="50" relative="1" as="geometry">
            <mxPoint x="708" y="180" as="sourcePoint" />
            <mxPoint x="763" y="291" as="targetPoint" />
          </mxGeometry>
        </mxCell>
        <mxCell id="foYc1p1-t5M7blXoYfU2-70" value="" style="edgeStyle=elbowEdgeStyle;elbow=vertical;endArrow=classic;html=1;curved=0;rounded=0;endSize=8;startSize=8;exitX=0.5;exitY=1;exitDx=0;exitDy=0;entryX=0.5;entryY=0;entryDx=0;entryDy=0;" parent="WIyWlLk6GJQsqaUBKTNV-1" source="foYc1p1-t5M7blXoYfU2-46" target="foYc1p1-t5M7blXoYfU2-51" edge="1">
          <mxGeometry width="50" height="50" relative="1" as="geometry">
            <mxPoint x="478" y="350" as="sourcePoint" />
            <mxPoint x="378" y="400" as="targetPoint" />
          </mxGeometry>
        </mxCell>
        <mxCell id="foYc1p1-t5M7blXoYfU2-71" value="" style="edgeStyle=elbowEdgeStyle;elbow=vertical;endArrow=classic;html=1;curved=0;rounded=0;endSize=8;startSize=8;exitX=0.5;exitY=1;exitDx=0;exitDy=0;entryX=0.5;entryY=0;entryDx=0;entryDy=0;" parent="WIyWlLk6GJQsqaUBKTNV-1" source="foYc1p1-t5M7blXoYfU2-53" target="foYc1p1-t5M7blXoYfU2-54" edge="1">
          <mxGeometry width="50" height="50" relative="1" as="geometry">
            <mxPoint x="478" y="350" as="sourcePoint" />
            <mxPoint x="552" y="400" as="targetPoint" />
          </mxGeometry>
        </mxCell>
        <mxCell id="foYc1p1-t5M7blXoYfU2-72" value="" style="edgeStyle=elbowEdgeStyle;elbow=vertical;endArrow=classic;html=1;curved=0;rounded=0;endSize=8;startSize=8;exitX=0.5;exitY=1;exitDx=0;exitDy=0;entryX=0.5;entryY=0;entryDx=0;entryDy=0;" parent="WIyWlLk6GJQsqaUBKTNV-1" source="foYc1p1-t5M7blXoYfU2-53" target="foYc1p1-t5M7blXoYfU2-55" edge="1">
          <mxGeometry width="50" height="50" relative="1" as="geometry">
            <mxPoint x="1018" y="350" as="sourcePoint" />
            <mxPoint x="908" y="410" as="targetPoint" />
          </mxGeometry>
        </mxCell>
        <mxCell id="foYc1p1-t5M7blXoYfU2-73" value="Nhập thông tin nhận hàng" style="rounded=0;whiteSpace=wrap;html=1;" parent="WIyWlLk6GJQsqaUBKTNV-1" vertex="1">
          <mxGeometry x="860" y="390" width="156" height="60" as="geometry" />
        </mxCell>
        <mxCell id="foYc1p1-t5M7blXoYfU2-74" value="" style="edgeStyle=elbowEdgeStyle;elbow=vertical;endArrow=classic;html=1;curved=0;rounded=0;endSize=8;startSize=8;exitX=0.5;exitY=1;exitDx=0;exitDy=0;entryX=0.5;entryY=0;entryDx=0;entryDy=0;" parent="WIyWlLk6GJQsqaUBKTNV-1" source="foYc1p1-t5M7blXoYfU2-53" target="foYc1p1-t5M7blXoYfU2-73" edge="1">
          <mxGeometry width="50" height="50" relative="1" as="geometry">
            <mxPoint x="1018" y="350" as="sourcePoint" />
            <mxPoint x="1132" y="400" as="targetPoint" />
          </mxGeometry>
        </mxCell>
        <mxCell id="foYc1p1-t5M7blXoYfU2-75" value="Xác nhận đặt đơn" style="rounded=0;whiteSpace=wrap;html=1;" parent="WIyWlLk6GJQsqaUBKTNV-1" vertex="1">
          <mxGeometry x="1220" y="390" width="156" height="60" as="geometry" />
        </mxCell>
        <mxCell id="foYc1p1-t5M7blXoYfU2-76" value="Theo dõi trạng thái đơn hàng" style="rounded=0;whiteSpace=wrap;html=1;" parent="WIyWlLk6GJQsqaUBKTNV-1" vertex="1">
          <mxGeometry x="1400" y="390" width="156" height="60" as="geometry" />
        </mxCell>
        <mxCell id="foYc1p1-t5M7blXoYfU2-77" value="Tạo yêu cầu đổi trả" style="rounded=0;whiteSpace=wrap;html=1;" parent="WIyWlLk6GJQsqaUBKTNV-1" vertex="1">
          <mxGeometry x="1610" y="390" width="156" height="60" as="geometry" />
        </mxCell>
        <mxCell id="foYc1p1-t5M7blXoYfU2-78" value="" style="edgeStyle=elbowEdgeStyle;elbow=vertical;endArrow=classic;html=1;curved=0;rounded=0;endSize=8;startSize=8;exitX=0.5;exitY=1;exitDx=0;exitDy=0;entryX=0.5;entryY=0;entryDx=0;entryDy=0;" parent="WIyWlLk6GJQsqaUBKTNV-1" source="foYc1p1-t5M7blXoYfU2-57" target="foYc1p1-t5M7blXoYfU2-77" edge="1">
          <mxGeometry width="50" height="50" relative="1" as="geometry">
            <mxPoint x="1018" y="350" as="sourcePoint" />
            <mxPoint x="948" y="400" as="targetPoint" />
          </mxGeometry>
        </mxCell>
        <mxCell id="foYc1p1-t5M7blXoYfU2-80" value="" style="edgeStyle=elbowEdgeStyle;elbow=vertical;endArrow=classic;html=1;curved=0;rounded=0;endSize=8;startSize=8;exitX=0.5;exitY=1;exitDx=0;exitDy=0;entryX=0.5;entryY=0;entryDx=0;entryDy=0;" parent="WIyWlLk6GJQsqaUBKTNV-1" source="foYc1p1-t5M7blXoYfU2-58" target="foYc1p1-t5M7blXoYfU2-59" edge="1">
          <mxGeometry width="50" height="50" relative="1" as="geometry">
            <mxPoint x="1758" y="350" as="sourcePoint" />
            <mxPoint x="1698" y="400" as="targetPoint" />
          </mxGeometry>
        </mxCell>
        <mxCell id="foYc1p1-t5M7blXoYfU2-81" value="" style="edgeStyle=elbowEdgeStyle;elbow=vertical;endArrow=classic;html=1;curved=0;rounded=0;endSize=8;startSize=8;exitX=0.5;exitY=1;exitDx=0;exitDy=0;entryX=0.5;entryY=0;entryDx=0;entryDy=0;" parent="WIyWlLk6GJQsqaUBKTNV-1" source="foYc1p1-t5M7blXoYfU2-58" target="foYc1p1-t5M7blXoYfU2-60" edge="1">
          <mxGeometry width="50" height="50" relative="1" as="geometry">
            <mxPoint x="1958" y="350" as="sourcePoint" />
            <mxPoint x="1898" y="400" as="targetPoint" />
          </mxGeometry>
        </mxCell>
        <mxCell id="foYc1p1-t5M7blXoYfU2-82" value="" style="edgeStyle=elbowEdgeStyle;elbow=vertical;endArrow=classic;html=1;curved=0;rounded=0;endSize=8;startSize=8;exitX=0.5;exitY=1;exitDx=0;exitDy=0;entryX=0.5;entryY=0;entryDx=0;entryDy=0;" parent="WIyWlLk6GJQsqaUBKTNV-1" source="foYc1p1-t5M7blXoYfU2-58" target="foYc1p1-t5M7blXoYfU2-61" edge="1">
          <mxGeometry width="50" height="50" relative="1" as="geometry">
            <mxPoint x="1968" y="360" as="sourcePoint" />
            <mxPoint x="1908" y="410" as="targetPoint" />
          </mxGeometry>
        </mxCell>
        <mxCell id="foYc1p1-t5M7blXoYfU2-83" value="" style="edgeStyle=elbowEdgeStyle;elbow=vertical;endArrow=classic;html=1;curved=0;rounded=0;endSize=8;startSize=8;exitX=0.5;exitY=1;exitDx=0;exitDy=0;entryX=0.5;entryY=0;entryDx=0;entryDy=0;" parent="WIyWlLk6GJQsqaUBKTNV-1" source="foYc1p1-t5M7blXoYfU2-58" target="foYc1p1-t5M7blXoYfU2-62" edge="1">
          <mxGeometry width="50" height="50" relative="1" as="geometry">
            <mxPoint x="1978" y="370" as="sourcePoint" />
            <mxPoint x="1918" y="420" as="targetPoint" />
          </mxGeometry>
        </mxCell>
        <mxCell id="foYc1p1-t5M7blXoYfU2-84" value="" style="edgeStyle=elbowEdgeStyle;elbow=vertical;endArrow=classic;html=1;curved=0;rounded=0;endSize=8;startSize=8;exitX=0.5;exitY=1;exitDx=0;exitDy=0;entryX=0.5;entryY=0;entryDx=0;entryDy=0;" parent="WIyWlLk6GJQsqaUBKTNV-1" source="foYc1p1-t5M7blXoYfU2-56" target="foYc1p1-t5M7blXoYfU2-76" edge="1">
          <mxGeometry width="50" height="50" relative="1" as="geometry">
            <mxPoint x="1758" y="350" as="sourcePoint" />
            <mxPoint x="1698" y="400" as="targetPoint" />
          </mxGeometry>
        </mxCell>
        <mxCell id="foYc1p1-t5M7blXoYfU2-85" value="" style="edgeStyle=elbowEdgeStyle;elbow=vertical;endArrow=classic;html=1;curved=0;rounded=0;endSize=8;startSize=8;exitX=0.5;exitY=1;exitDx=0;exitDy=0;entryX=0.5;entryY=0;entryDx=0;entryDy=0;" parent="WIyWlLk6GJQsqaUBKTNV-1" source="foYc1p1-t5M7blXoYfU2-53" target="foYc1p1-t5M7blXoYfU2-75" edge="1">
          <mxGeometry width="50" height="50" relative="1" as="geometry">
            <mxPoint x="1018" y="350" as="sourcePoint" />
            <mxPoint x="1132" y="400" as="targetPoint" />
          </mxGeometry>
        </mxCell>
        <mxCell id="g5pkuBaanTUEijDNv1J0-0" value="Quản lý hàng hóa" style="rounded=0;whiteSpace=wrap;html=1;" parent="WIyWlLk6GJQsqaUBKTNV-1" vertex="1">
          <mxGeometry x="-1280" y="780" width="156" height="60" as="geometry" />
        </mxCell>
        <mxCell id="g5pkuBaanTUEijDNv1J0-1" value="" style="edgeStyle=elbowEdgeStyle;elbow=vertical;endArrow=classic;html=1;curved=0;rounded=0;endSize=8;startSize=8;exitX=0.5;exitY=1;exitDx=0;exitDy=0;entryX=0.5;entryY=0;entryDx=0;entryDy=0;" parent="WIyWlLk6GJQsqaUBKTNV-1" source="g5pkuBaanTUEijDNv1J0-0" target="g5pkuBaanTUEijDNv1J0-3" edge="1">
          <mxGeometry width="50" height="50" relative="1" as="geometry">
            <mxPoint x="-480" y="1060" as="sourcePoint" />
            <mxPoint x="-1130" y="900" as="targetPoint" />
          </mxGeometry>
        </mxCell>
        <mxCell id="g5pkuBaanTUEijDNv1J0-2" value="Theo dõi hàng tồn kho" style="rounded=0;whiteSpace=wrap;html=1;" parent="WIyWlLk6GJQsqaUBKTNV-1" vertex="1">
          <mxGeometry x="-1450" y="900" width="156" height="60" as="geometry" />
        </mxCell>
        <mxCell id="g5pkuBaanTUEijDNv1J0-3" value="Quản lý hàng nhập" style="rounded=0;whiteSpace=wrap;html=1;" parent="WIyWlLk6GJQsqaUBKTNV-1" vertex="1">
          <mxGeometry x="-1280" y="900" width="156" height="60" as="geometry" />
        </mxCell>
        <mxCell id="g5pkuBaanTUEijDNv1J0-4" value="" style="edgeStyle=elbowEdgeStyle;elbow=vertical;endArrow=classic;html=1;curved=0;rounded=0;endSize=8;startSize=8;exitX=0.5;exitY=1;exitDx=0;exitDy=0;entryX=0.5;entryY=0;entryDx=0;entryDy=0;" parent="WIyWlLk6GJQsqaUBKTNV-1" source="g5pkuBaanTUEijDNv1J0-0" target="g5pkuBaanTUEijDNv1J0-2" edge="1">
          <mxGeometry width="50" height="50" relative="1" as="geometry">
            <mxPoint x="-690" y="940" as="sourcePoint" />
            <mxPoint x="-1202" y="900" as="targetPoint" />
          </mxGeometry>
        </mxCell>
        <mxCell id="g5pkuBaanTUEijDNv1J0-5" value="Ghi nhận giao dịch" style="rounded=0;whiteSpace=wrap;html=1;" parent="WIyWlLk6GJQsqaUBKTNV-1" vertex="1">
          <mxGeometry x="-1110" y="900" width="156" height="60" as="geometry" />
        </mxCell>
        <mxCell id="g5pkuBaanTUEijDNv1J0-6" value="" style="edgeStyle=elbowEdgeStyle;elbow=vertical;endArrow=classic;html=1;curved=0;rounded=0;endSize=8;startSize=8;exitX=0.5;exitY=1;exitDx=0;exitDy=0;entryX=0.5;entryY=0;entryDx=0;entryDy=0;" parent="WIyWlLk6GJQsqaUBKTNV-1" source="g5pkuBaanTUEijDNv1J0-0" target="g5pkuBaanTUEijDNv1J0-5" edge="1">
          <mxGeometry width="50" height="50" relative="1" as="geometry">
            <mxPoint x="-732" y="850" as="sourcePoint" />
            <mxPoint x="-1130" y="900" as="targetPoint" />
          </mxGeometry>
        </mxCell>
        <mxCell id="g5pkuBaanTUEijDNv1J0-7" value="Quản lý khách hàng" style="rounded=0;whiteSpace=wrap;html=1;" parent="WIyWlLk6GJQsqaUBKTNV-1" vertex="1">
          <mxGeometry x="-588" y="769" width="156" height="60" as="geometry" />
        </mxCell>
        <mxCell id="g5pkuBaanTUEijDNv1J0-8" value="Lưu trữ thông tin khách hàng" style="rounded=0;whiteSpace=wrap;html=1;" parent="WIyWlLk6GJQsqaUBKTNV-1" vertex="1">
          <mxGeometry x="-721" y="879" width="156" height="60" as="geometry" />
        </mxCell>
        <mxCell id="g5pkuBaanTUEijDNv1J0-9" value="" style="edgeStyle=elbowEdgeStyle;elbow=vertical;endArrow=classic;html=1;curved=0;rounded=0;endSize=8;startSize=8;exitX=0.5;exitY=1;exitDx=0;exitDy=0;entryX=0.5;entryY=0;entryDx=0;entryDy=0;" parent="WIyWlLk6GJQsqaUBKTNV-1" source="g5pkuBaanTUEijDNv1J0-7" target="g5pkuBaanTUEijDNv1J0-8" edge="1">
          <mxGeometry width="50" height="50" relative="1" as="geometry">
            <mxPoint x="-560" y="839" as="sourcePoint" />
            <mxPoint x="-610" y="889" as="targetPoint" />
          </mxGeometry>
        </mxCell>
        <mxCell id="g5pkuBaanTUEijDNv1J0-10" value="Quản lý tài khoản" style="rounded=0;whiteSpace=wrap;html=1;" parent="WIyWlLk6GJQsqaUBKTNV-1" vertex="1">
          <mxGeometry x="-451" y="879" width="156" height="60" as="geometry" />
        </mxCell>
        <mxCell id="g5pkuBaanTUEijDNv1J0-11" value="" style="edgeStyle=elbowEdgeStyle;elbow=vertical;endArrow=classic;html=1;curved=0;rounded=0;endSize=8;startSize=8;exitX=0.5;exitY=1;exitDx=0;exitDy=0;entryX=0.5;entryY=0;entryDx=0;entryDy=0;" parent="WIyWlLk6GJQsqaUBKTNV-1" source="g5pkuBaanTUEijDNv1J0-7" target="g5pkuBaanTUEijDNv1J0-10" edge="1">
          <mxGeometry width="50" height="50" relative="1" as="geometry">
            <mxPoint x="-500" y="839" as="sourcePoint" />
            <mxPoint x="-650" y="889" as="targetPoint" />
          </mxGeometry>
        </mxCell>
        <mxCell id="g5pkuBaanTUEijDNv1J0-13" value="Quản lý đơn hàng" style="rounded=0;whiteSpace=wrap;html=1;" parent="WIyWlLk6GJQsqaUBKTNV-1" vertex="1">
          <mxGeometry x="233" y="776" width="156" height="60" as="geometry" />
        </mxCell>
        <mxCell id="g5pkuBaanTUEijDNv1J0-14" value="Kiểm tra thông tin đơn hàng" style="rounded=0;whiteSpace=wrap;html=1;" parent="WIyWlLk6GJQsqaUBKTNV-1" vertex="1">
          <mxGeometry x="106" y="886" width="156" height="60" as="geometry" />
        </mxCell>
        <mxCell id="g5pkuBaanTUEijDNv1J0-15" value="" style="edgeStyle=elbowEdgeStyle;elbow=vertical;endArrow=classic;html=1;curved=0;rounded=0;endSize=8;startSize=8;exitX=0.5;exitY=1;exitDx=0;exitDy=0;entryX=0.5;entryY=0;entryDx=0;entryDy=0;" parent="WIyWlLk6GJQsqaUBKTNV-1" source="g5pkuBaanTUEijDNv1J0-13" target="g5pkuBaanTUEijDNv1J0-14" edge="1">
          <mxGeometry width="50" height="50" relative="1" as="geometry">
            <mxPoint x="111" y="846" as="sourcePoint" />
            <mxPoint x="111" y="896" as="targetPoint" />
          </mxGeometry>
        </mxCell>
        <mxCell id="g5pkuBaanTUEijDNv1J0-16" value="Theo dõi trạng thái đơn hàng" style="rounded=0;whiteSpace=wrap;html=1;" parent="WIyWlLk6GJQsqaUBKTNV-1" vertex="1">
          <mxGeometry x="373" y="886" width="156" height="60" as="geometry" />
        </mxCell>
        <mxCell id="g5pkuBaanTUEijDNv1J0-17" value="" style="edgeStyle=elbowEdgeStyle;elbow=vertical;endArrow=classic;html=1;curved=0;rounded=0;endSize=8;startSize=8;entryX=0.5;entryY=0;entryDx=0;entryDy=0;exitX=0.5;exitY=1;exitDx=0;exitDy=0;" parent="WIyWlLk6GJQsqaUBKTNV-1" source="g5pkuBaanTUEijDNv1J0-13" target="g5pkuBaanTUEijDNv1J0-16" edge="1">
          <mxGeometry width="50" height="50" relative="1" as="geometry">
            <mxPoint x="333" y="856" as="sourcePoint" />
            <mxPoint x="281" y="896" as="targetPoint" />
          </mxGeometry>
        </mxCell>
        <mxCell id="g5pkuBaanTUEijDNv1J0-18" value="Quản lý thông tin sản phẩm" style="rounded=0;whiteSpace=wrap;html=1;" parent="WIyWlLk6GJQsqaUBKTNV-1" vertex="1">
          <mxGeometry x="1073" y="769" width="156" height="60" as="geometry" />
        </mxCell>
        <mxCell id="g5pkuBaanTUEijDNv1J0-19" value="Thêm, sửa, xóa, cập nhật thông tin sản phẩm" style="rounded=0;whiteSpace=wrap;html=1;" parent="WIyWlLk6GJQsqaUBKTNV-1" vertex="1">
          <mxGeometry x="977" y="879" width="156" height="60" as="geometry" />
        </mxCell>
        <mxCell id="g5pkuBaanTUEijDNv1J0-20" value="Cập nhật hình ảnh, mô tả của sản phẩm" style="rounded=0;whiteSpace=wrap;html=1;" parent="WIyWlLk6GJQsqaUBKTNV-1" vertex="1">
          <mxGeometry x="1167" y="879" width="156" height="60" as="geometry" />
        </mxCell>
        <mxCell id="g5pkuBaanTUEijDNv1J0-21" value="" style="edgeStyle=elbowEdgeStyle;elbow=vertical;endArrow=classic;html=1;curved=0;rounded=0;endSize=8;startSize=8;entryX=0.5;entryY=0;entryDx=0;entryDy=0;exitX=0.5;exitY=1;exitDx=0;exitDy=0;" parent="WIyWlLk6GJQsqaUBKTNV-1" source="g5pkuBaanTUEijDNv1J0-18" target="g5pkuBaanTUEijDNv1J0-19" edge="1">
          <mxGeometry width="50" height="50" relative="1" as="geometry">
            <mxPoint x="761" y="839" as="sourcePoint" />
            <mxPoint x="901" y="889" as="targetPoint" />
          </mxGeometry>
        </mxCell>
        <mxCell id="g5pkuBaanTUEijDNv1J0-22" value="" style="edgeStyle=elbowEdgeStyle;elbow=vertical;endArrow=classic;html=1;curved=0;rounded=0;endSize=8;startSize=8;entryX=0.5;entryY=0;entryDx=0;entryDy=0;exitX=0.5;exitY=1;exitDx=0;exitDy=0;" parent="WIyWlLk6GJQsqaUBKTNV-1" source="g5pkuBaanTUEijDNv1J0-18" target="g5pkuBaanTUEijDNv1J0-20" edge="1">
          <mxGeometry width="50" height="50" relative="1" as="geometry">
            <mxPoint x="771" y="849" as="sourcePoint" />
            <mxPoint x="911" y="899" as="targetPoint" />
          </mxGeometry>
        </mxCell>
        <mxCell id="g5pkuBaanTUEijDNv1J0-23" value="Thống kê, báo cáo" style="rounded=0;whiteSpace=wrap;html=1;" parent="WIyWlLk6GJQsqaUBKTNV-1" vertex="1">
          <mxGeometry x="1984" y="755" width="156" height="60" as="geometry" />
        </mxCell>
        <mxCell id="g5pkuBaanTUEijDNv1J0-24" value="Thống kê hàng nhập, bán, tồn kho" style="rounded=0;whiteSpace=wrap;html=1;" parent="WIyWlLk6GJQsqaUBKTNV-1" vertex="1">
          <mxGeometry x="1708" y="867" width="156" height="60" as="geometry" />
        </mxCell>
        <mxCell id="g5pkuBaanTUEijDNv1J0-25" value="Báo cáo doanh thu" style="rounded=0;whiteSpace=wrap;html=1;" parent="WIyWlLk6GJQsqaUBKTNV-1" vertex="1">
          <mxGeometry x="1888" y="867" width="156" height="60" as="geometry" />
        </mxCell>
        <mxCell id="g5pkuBaanTUEijDNv1J0-26" value="" style="edgeStyle=elbowEdgeStyle;elbow=vertical;endArrow=classic;html=1;curved=0;rounded=0;endSize=8;startSize=8;entryX=0.5;entryY=0;entryDx=0;entryDy=0;exitX=0.5;exitY=1;exitDx=0;exitDy=0;" parent="WIyWlLk6GJQsqaUBKTNV-1" source="g5pkuBaanTUEijDNv1J0-23" target="g5pkuBaanTUEijDNv1J0-25" edge="1">
          <mxGeometry width="50" height="50" relative="1" as="geometry">
            <mxPoint x="1785" y="822" as="sourcePoint" />
            <mxPoint x="1705" y="872" as="targetPoint" />
          </mxGeometry>
        </mxCell>
        <mxCell id="g5pkuBaanTUEijDNv1J0-27" value="" style="edgeStyle=elbowEdgeStyle;elbow=vertical;endArrow=classic;html=1;curved=0;rounded=0;endSize=8;startSize=8;entryX=0.5;entryY=0;entryDx=0;entryDy=0;exitX=0.5;exitY=1;exitDx=0;exitDy=0;" parent="WIyWlLk6GJQsqaUBKTNV-1" source="g5pkuBaanTUEijDNv1J0-23" target="g5pkuBaanTUEijDNv1J0-24" edge="1">
          <mxGeometry width="50" height="50" relative="1" as="geometry">
            <mxPoint x="1785" y="822" as="sourcePoint" />
            <mxPoint x="1875" y="872" as="targetPoint" />
          </mxGeometry>
        </mxCell>
        <mxCell id="g5pkuBaanTUEijDNv1J0-28" value="Thống kê sản phẩm bán chạy" style="rounded=0;whiteSpace=wrap;html=1;" parent="WIyWlLk6GJQsqaUBKTNV-1" vertex="1">
          <mxGeometry x="2283" y="867" width="156" height="60" as="geometry" />
        </mxCell>
        <mxCell id="g5pkuBaanTUEijDNv1J0-29" value="" style="edgeStyle=elbowEdgeStyle;elbow=vertical;endArrow=classic;html=1;curved=0;rounded=0;endSize=8;startSize=8;entryX=0.5;entryY=0;entryDx=0;entryDy=0;exitX=0.5;exitY=1;exitDx=0;exitDy=0;" parent="WIyWlLk6GJQsqaUBKTNV-1" source="g5pkuBaanTUEijDNv1J0-23" target="g5pkuBaanTUEijDNv1J0-28" edge="1">
          <mxGeometry width="50" height="50" relative="1" as="geometry">
            <mxPoint x="2147" y="822" as="sourcePoint" />
            <mxPoint x="2215" y="872" as="targetPoint" />
          </mxGeometry>
        </mxCell>
        <mxCell id="VvvP-XUbt0aa8I8eYEkI-0" value="Gửi mail quảng cáo cho sản phẩm bán chạy" style="rounded=0;whiteSpace=wrap;html=1;" parent="WIyWlLk6GJQsqaUBKTNV-1" vertex="1">
          <mxGeometry x="2083" y="867" width="156" height="60" as="geometry" />
        </mxCell>
        <mxCell id="VvvP-XUbt0aa8I8eYEkI-1" value="" style="edgeStyle=elbowEdgeStyle;elbow=vertical;endArrow=classic;html=1;curved=0;rounded=0;endSize=8;startSize=8;entryX=0.5;entryY=0;entryDx=0;entryDy=0;exitX=0.5;exitY=1;exitDx=0;exitDy=0;" parent="WIyWlLk6GJQsqaUBKTNV-1" source="g5pkuBaanTUEijDNv1J0-23" target="VvvP-XUbt0aa8I8eYEkI-0" edge="1">
          <mxGeometry width="50" height="50" relative="1" as="geometry">
            <mxPoint x="2105" y="822" as="sourcePoint" />
            <mxPoint x="2371" y="877" as="targetPoint" />
          </mxGeometry>
        </mxCell>
        <mxCell id="VvvP-XUbt0aa8I8eYEkI-2" value="Xem sản phẩm" style="rounded=0;whiteSpace=wrap;html=1;" parent="WIyWlLk6GJQsqaUBKTNV-1" vertex="1">
          <mxGeometry x="-490" y="1284" width="156" height="60" as="geometry" />
        </mxCell>
        <mxCell id="VvvP-XUbt0aa8I8eYEkI-3" value="Hiển thị chi tiết sản phẩm" style="rounded=0;whiteSpace=wrap;html=1;" parent="WIyWlLk6GJQsqaUBKTNV-1" vertex="1">
          <mxGeometry x="-590" y="1394" width="156" height="60" as="geometry" />
        </mxCell>
        <mxCell id="VvvP-XUbt0aa8I8eYEkI-4" value="Xem số lượng tồn kho" style="rounded=0;whiteSpace=wrap;html=1;" parent="WIyWlLk6GJQsqaUBKTNV-1" vertex="1">
          <mxGeometry x="-393" y="1394" width="156" height="60" as="geometry" />
        </mxCell>
        <mxCell id="VvvP-XUbt0aa8I8eYEkI-5" value="" style="edgeStyle=elbowEdgeStyle;elbow=vertical;endArrow=classic;html=1;curved=0;rounded=0;endSize=8;startSize=8;exitX=0.5;exitY=1;exitDx=0;exitDy=0;entryX=0.5;entryY=0;entryDx=0;entryDy=0;" parent="WIyWlLk6GJQsqaUBKTNV-1" source="VvvP-XUbt0aa8I8eYEkI-2" target="VvvP-XUbt0aa8I8eYEkI-3" edge="1">
          <mxGeometry width="50" height="50" relative="1" as="geometry">
            <mxPoint x="-172" y="1184" as="sourcePoint" />
            <mxPoint x="-117" y="1295" as="targetPoint" />
          </mxGeometry>
        </mxCell>
        <mxCell id="VvvP-XUbt0aa8I8eYEkI-6" value="" style="edgeStyle=elbowEdgeStyle;elbow=vertical;endArrow=classic;html=1;curved=0;rounded=0;endSize=8;startSize=8;exitX=0.5;exitY=1;exitDx=0;exitDy=0;entryX=0.5;entryY=0;entryDx=0;entryDy=0;" parent="WIyWlLk6GJQsqaUBKTNV-1" source="VvvP-XUbt0aa8I8eYEkI-2" target="VvvP-XUbt0aa8I8eYEkI-4" edge="1">
          <mxGeometry width="50" height="50" relative="1" as="geometry">
            <mxPoint x="-402" y="1354" as="sourcePoint" />
            <mxPoint x="-502" y="1404" as="targetPoint" />
          </mxGeometry>
        </mxCell>
        <mxCell id="VvvP-XUbt0aa8I8eYEkI-7" value="Thêm vào giỏ hàng" style="rounded=0;whiteSpace=wrap;html=1;" parent="WIyWlLk6GJQsqaUBKTNV-1" vertex="1">
          <mxGeometry x="285" y="1246" width="156" height="60" as="geometry" />
        </mxCell>
        <mxCell id="VvvP-XUbt0aa8I8eYEkI-8" value="Thêm, xóa sản phẩm khỏi giỏ hàng" style="rounded=0;whiteSpace=wrap;html=1;" parent="WIyWlLk6GJQsqaUBKTNV-1" vertex="1">
          <mxGeometry x="185" y="1356" width="156" height="60" as="geometry" />
        </mxCell>
        <mxCell id="VvvP-XUbt0aa8I8eYEkI-9" value="Đặt mua các sản phẩm được chọn trong giỏ hàng" style="rounded=0;whiteSpace=wrap;html=1;" parent="WIyWlLk6GJQsqaUBKTNV-1" vertex="1">
          <mxGeometry x="382" y="1356" width="156" height="60" as="geometry" />
        </mxCell>
        <mxCell id="VvvP-XUbt0aa8I8eYEkI-10" value="" style="edgeStyle=elbowEdgeStyle;elbow=vertical;endArrow=classic;html=1;curved=0;rounded=0;endSize=8;startSize=8;exitX=0.5;exitY=1;exitDx=0;exitDy=0;entryX=0.5;entryY=0;entryDx=0;entryDy=0;" parent="WIyWlLk6GJQsqaUBKTNV-1" source="VvvP-XUbt0aa8I8eYEkI-7" target="VvvP-XUbt0aa8I8eYEkI-8" edge="1">
          <mxGeometry width="50" height="50" relative="1" as="geometry">
            <mxPoint x="603" y="1146" as="sourcePoint" />
            <mxPoint x="658" y="1257" as="targetPoint" />
          </mxGeometry>
        </mxCell>
        <mxCell id="VvvP-XUbt0aa8I8eYEkI-11" value="" style="edgeStyle=elbowEdgeStyle;elbow=vertical;endArrow=classic;html=1;curved=0;rounded=0;endSize=8;startSize=8;exitX=0.5;exitY=1;exitDx=0;exitDy=0;entryX=0.5;entryY=0;entryDx=0;entryDy=0;" parent="WIyWlLk6GJQsqaUBKTNV-1" source="VvvP-XUbt0aa8I8eYEkI-7" target="VvvP-XUbt0aa8I8eYEkI-9" edge="1">
          <mxGeometry width="50" height="50" relative="1" as="geometry">
            <mxPoint x="373" y="1316" as="sourcePoint" />
            <mxPoint x="273" y="1366" as="targetPoint" />
          </mxGeometry>
        </mxCell>
        <mxCell id="VvvP-XUbt0aa8I8eYEkI-12" value="Đặt hàng" style="rounded=0;whiteSpace=wrap;html=1;" parent="WIyWlLk6GJQsqaUBKTNV-1" vertex="1">
          <mxGeometry x="1162" y="1292" width="156" height="60" as="geometry" />
        </mxCell>
        <mxCell id="VvvP-XUbt0aa8I8eYEkI-13" value="Xem chi tiết đơn hàng" style="rounded=0;whiteSpace=wrap;html=1;" parent="WIyWlLk6GJQsqaUBKTNV-1" vertex="1">
          <mxGeometry x="912" y="1402" width="156" height="60" as="geometry" />
        </mxCell>
        <mxCell id="VvvP-XUbt0aa8I8eYEkI-14" value="Chọn hình thức thanh toán" style="rounded=0;whiteSpace=wrap;html=1;" parent="WIyWlLk6GJQsqaUBKTNV-1" vertex="1">
          <mxGeometry x="1257" y="1402" width="156" height="60" as="geometry" />
        </mxCell>
        <mxCell id="VvvP-XUbt0aa8I8eYEkI-15" value="" style="edgeStyle=elbowEdgeStyle;elbow=vertical;endArrow=classic;html=1;curved=0;rounded=0;endSize=8;startSize=8;exitX=0.5;exitY=1;exitDx=0;exitDy=0;entryX=0.5;entryY=0;entryDx=0;entryDy=0;" parent="WIyWlLk6GJQsqaUBKTNV-1" source="VvvP-XUbt0aa8I8eYEkI-12" target="VvvP-XUbt0aa8I8eYEkI-13" edge="1">
          <mxGeometry width="50" height="50" relative="1" as="geometry">
            <mxPoint x="710" y="1362" as="sourcePoint" />
            <mxPoint x="784" y="1412" as="targetPoint" />
          </mxGeometry>
        </mxCell>
        <mxCell id="VvvP-XUbt0aa8I8eYEkI-16" value="" style="edgeStyle=elbowEdgeStyle;elbow=vertical;endArrow=classic;html=1;curved=0;rounded=0;endSize=8;startSize=8;exitX=0.5;exitY=1;exitDx=0;exitDy=0;entryX=0.5;entryY=0;entryDx=0;entryDy=0;" parent="WIyWlLk6GJQsqaUBKTNV-1" source="VvvP-XUbt0aa8I8eYEkI-12" target="VvvP-XUbt0aa8I8eYEkI-14" edge="1">
          <mxGeometry width="50" height="50" relative="1" as="geometry">
            <mxPoint x="1250" y="1362" as="sourcePoint" />
            <mxPoint x="1140" y="1422" as="targetPoint" />
          </mxGeometry>
        </mxCell>
        <mxCell id="VvvP-XUbt0aa8I8eYEkI-17" value="Nhập thông tin nhận hàng" style="rounded=0;whiteSpace=wrap;html=1;" parent="WIyWlLk6GJQsqaUBKTNV-1" vertex="1">
          <mxGeometry x="1089" y="1402" width="156" height="60" as="geometry" />
        </mxCell>
        <mxCell id="VvvP-XUbt0aa8I8eYEkI-18" value="" style="edgeStyle=elbowEdgeStyle;elbow=vertical;endArrow=classic;html=1;curved=0;rounded=0;endSize=8;startSize=8;exitX=0.5;exitY=1;exitDx=0;exitDy=0;entryX=0.5;entryY=0;entryDx=0;entryDy=0;" parent="WIyWlLk6GJQsqaUBKTNV-1" source="VvvP-XUbt0aa8I8eYEkI-12" target="VvvP-XUbt0aa8I8eYEkI-17" edge="1">
          <mxGeometry width="50" height="50" relative="1" as="geometry">
            <mxPoint x="1250" y="1362" as="sourcePoint" />
            <mxPoint x="1364" y="1412" as="targetPoint" />
          </mxGeometry>
        </mxCell>
        <mxCell id="VvvP-XUbt0aa8I8eYEkI-19" value="Xác nhận đặt đơn" style="rounded=0;whiteSpace=wrap;html=1;" parent="WIyWlLk6GJQsqaUBKTNV-1" vertex="1">
          <mxGeometry x="1431" y="1402" width="156" height="60" as="geometry" />
        </mxCell>
        <mxCell id="VvvP-XUbt0aa8I8eYEkI-20" value="" style="edgeStyle=elbowEdgeStyle;elbow=vertical;endArrow=classic;html=1;curved=0;rounded=0;endSize=8;startSize=8;exitX=0.5;exitY=1;exitDx=0;exitDy=0;entryX=0.5;entryY=0;entryDx=0;entryDy=0;" parent="WIyWlLk6GJQsqaUBKTNV-1" source="VvvP-XUbt0aa8I8eYEkI-12" target="VvvP-XUbt0aa8I8eYEkI-19" edge="1">
          <mxGeometry width="50" height="50" relative="1" as="geometry">
            <mxPoint x="1250" y="1362" as="sourcePoint" />
            <mxPoint x="1364" y="1412" as="targetPoint" />
          </mxGeometry>
        </mxCell>
        <mxCell id="AeRODau3CtbDt2xu83sy-3" style="edgeStyle=orthogonalEdgeStyle;rounded=0;orthogonalLoop=1;jettySize=auto;html=1;entryX=0.5;entryY=0;entryDx=0;entryDy=0;" edge="1" parent="WIyWlLk6GJQsqaUBKTNV-1" source="VvvP-XUbt0aa8I8eYEkI-21" target="AeRODau3CtbDt2xu83sy-2">
          <mxGeometry relative="1" as="geometry" />
        </mxCell>
        <mxCell id="VvvP-XUbt0aa8I8eYEkI-21" value="Xem lịch sử đơn đặt" style="rounded=0;whiteSpace=wrap;html=1;" parent="WIyWlLk6GJQsqaUBKTNV-1" vertex="1">
          <mxGeometry x="1791" y="1284" width="156" height="60" as="geometry" />
        </mxCell>
        <mxCell id="VvvP-XUbt0aa8I8eYEkI-22" value="Lọc đơn theo trạng thái" style="rounded=0;whiteSpace=wrap;html=1;" parent="WIyWlLk6GJQsqaUBKTNV-1" vertex="1">
          <mxGeometry x="1660" y="1407" width="156" height="60" as="geometry" />
        </mxCell>
        <mxCell id="VvvP-XUbt0aa8I8eYEkI-23" value="" style="edgeStyle=elbowEdgeStyle;elbow=vertical;endArrow=classic;html=1;curved=0;rounded=0;endSize=8;startSize=8;exitX=0.5;exitY=1;exitDx=0;exitDy=0;entryX=0.5;entryY=0;entryDx=0;entryDy=0;" parent="WIyWlLk6GJQsqaUBKTNV-1" source="VvvP-XUbt0aa8I8eYEkI-21" target="VvvP-XUbt0aa8I8eYEkI-22" edge="1">
          <mxGeometry width="50" height="50" relative="1" as="geometry">
            <mxPoint x="1982" y="1349" as="sourcePoint" />
            <mxPoint x="1922" y="1399" as="targetPoint" />
          </mxGeometry>
        </mxCell>
        <mxCell id="VvvP-XUbt0aa8I8eYEkI-24" value="Đổi trả" style="rounded=0;whiteSpace=wrap;html=1;" parent="WIyWlLk6GJQsqaUBKTNV-1" vertex="1">
          <mxGeometry x="2167" y="1292" width="156" height="60" as="geometry" />
        </mxCell>
        <mxCell id="VvvP-XUbt0aa8I8eYEkI-25" value="Tạo yêu cầu đổi trả" style="rounded=0;whiteSpace=wrap;html=1;" parent="WIyWlLk6GJQsqaUBKTNV-1" vertex="1">
          <mxGeometry x="2167" y="1405" width="156" height="60" as="geometry" />
        </mxCell>
        <mxCell id="VvvP-XUbt0aa8I8eYEkI-26" value="" style="edgeStyle=elbowEdgeStyle;elbow=vertical;endArrow=classic;html=1;curved=0;rounded=0;endSize=8;startSize=8;exitX=0.5;exitY=1;exitDx=0;exitDy=0;entryX=0.5;entryY=0;entryDx=0;entryDy=0;" parent="WIyWlLk6GJQsqaUBKTNV-1" source="VvvP-XUbt0aa8I8eYEkI-24" target="VvvP-XUbt0aa8I8eYEkI-25" edge="1">
          <mxGeometry width="50" height="50" relative="1" as="geometry">
            <mxPoint x="1515" y="1362" as="sourcePoint" />
            <mxPoint x="1445" y="1412" as="targetPoint" />
          </mxGeometry>
        </mxCell>
        <mxCell id="AeRODau3CtbDt2xu83sy-1" style="edgeStyle=orthogonalEdgeStyle;rounded=0;orthogonalLoop=1;jettySize=auto;html=1;" edge="1" parent="WIyWlLk6GJQsqaUBKTNV-1" source="VvvP-XUbt0aa8I8eYEkI-27" target="AeRODau3CtbDt2xu83sy-0">
          <mxGeometry relative="1" as="geometry" />
        </mxCell>
        <mxCell id="VvvP-XUbt0aa8I8eYEkI-27" value="Quản lý tài khoản" style="rounded=0;whiteSpace=wrap;html=1;" parent="WIyWlLk6GJQsqaUBKTNV-1" vertex="1">
          <mxGeometry x="2793" y="1284" width="156" height="60" as="geometry" />
        </mxCell>
        <mxCell id="VvvP-XUbt0aa8I8eYEkI-28" value="Đăng ký" style="rounded=0;whiteSpace=wrap;html=1;" parent="WIyWlLk6GJQsqaUBKTNV-1" vertex="1">
          <mxGeometry x="2473" y="1402" width="156" height="60" as="geometry" />
        </mxCell>
        <mxCell id="VvvP-XUbt0aa8I8eYEkI-29" value="Đăng nhập" style="rounded=0;whiteSpace=wrap;html=1;" parent="WIyWlLk6GJQsqaUBKTNV-1" vertex="1">
          <mxGeometry x="2682" y="1402" width="156" height="60" as="geometry" />
        </mxCell>
        <mxCell id="VvvP-XUbt0aa8I8eYEkI-30" value="Đổi mật khẩu" style="rounded=0;whiteSpace=wrap;html=1;" parent="WIyWlLk6GJQsqaUBKTNV-1" vertex="1">
          <mxGeometry x="2929" y="1402" width="156" height="60" as="geometry" />
        </mxCell>
        <mxCell id="VvvP-XUbt0aa8I8eYEkI-31" value="Đăng xuất" style="rounded=0;whiteSpace=wrap;html=1;" parent="WIyWlLk6GJQsqaUBKTNV-1" vertex="1">
          <mxGeometry x="3131" y="1402" width="156" height="60" as="geometry" />
        </mxCell>
        <mxCell id="VvvP-XUbt0aa8I8eYEkI-32" value="" style="edgeStyle=elbowEdgeStyle;elbow=vertical;endArrow=classic;html=1;curved=0;rounded=0;endSize=8;startSize=8;exitX=0.5;exitY=1;exitDx=0;exitDy=0;entryX=0.5;entryY=0;entryDx=0;entryDy=0;" parent="WIyWlLk6GJQsqaUBKTNV-1" source="VvvP-XUbt0aa8I8eYEkI-27" target="VvvP-XUbt0aa8I8eYEkI-28" edge="1">
          <mxGeometry width="50" height="50" relative="1" as="geometry">
            <mxPoint x="2476" y="1362" as="sourcePoint" />
            <mxPoint x="2416" y="1412" as="targetPoint" />
          </mxGeometry>
        </mxCell>
        <mxCell id="VvvP-XUbt0aa8I8eYEkI-33" value="" style="edgeStyle=elbowEdgeStyle;elbow=vertical;endArrow=classic;html=1;curved=0;rounded=0;endSize=8;startSize=8;exitX=0.5;exitY=1;exitDx=0;exitDy=0;entryX=0.5;entryY=0;entryDx=0;entryDy=0;" parent="WIyWlLk6GJQsqaUBKTNV-1" source="VvvP-XUbt0aa8I8eYEkI-27" target="VvvP-XUbt0aa8I8eYEkI-29" edge="1">
          <mxGeometry width="50" height="50" relative="1" as="geometry">
            <mxPoint x="2676" y="1362" as="sourcePoint" />
            <mxPoint x="2616" y="1412" as="targetPoint" />
          </mxGeometry>
        </mxCell>
        <mxCell id="VvvP-XUbt0aa8I8eYEkI-34" value="" style="edgeStyle=elbowEdgeStyle;elbow=vertical;endArrow=classic;html=1;curved=0;rounded=0;endSize=8;startSize=8;exitX=0.5;exitY=1;exitDx=0;exitDy=0;entryX=0.5;entryY=0;entryDx=0;entryDy=0;" parent="WIyWlLk6GJQsqaUBKTNV-1" source="VvvP-XUbt0aa8I8eYEkI-27" target="VvvP-XUbt0aa8I8eYEkI-30" edge="1">
          <mxGeometry width="50" height="50" relative="1" as="geometry">
            <mxPoint x="2686" y="1372" as="sourcePoint" />
            <mxPoint x="2626" y="1422" as="targetPoint" />
          </mxGeometry>
        </mxCell>
        <mxCell id="VvvP-XUbt0aa8I8eYEkI-35" value="" style="edgeStyle=elbowEdgeStyle;elbow=vertical;endArrow=classic;html=1;curved=0;rounded=0;endSize=8;startSize=8;exitX=0.5;exitY=1;exitDx=0;exitDy=0;entryX=0.5;entryY=0;entryDx=0;entryDy=0;" parent="WIyWlLk6GJQsqaUBKTNV-1" source="VvvP-XUbt0aa8I8eYEkI-27" target="VvvP-XUbt0aa8I8eYEkI-31" edge="1">
          <mxGeometry width="50" height="50" relative="1" as="geometry">
            <mxPoint x="2696" y="1382" as="sourcePoint" />
            <mxPoint x="2636" y="1432" as="targetPoint" />
          </mxGeometry>
        </mxCell>
        <mxCell id="vDcqL7bE7hWHBdpnDgDH-28" value="Website bán đồng hồ" style="rounded=0;whiteSpace=wrap;html=1;" parent="WIyWlLk6GJQsqaUBKTNV-1" vertex="1">
          <mxGeometry x="1502" y="-699" width="156" height="60" as="geometry" />
        </mxCell>
        <mxCell id="vDcqL7bE7hWHBdpnDgDH-29" value="Quản lý" style="rounded=0;whiteSpace=wrap;html=1;" parent="WIyWlLk6GJQsqaUBKTNV-1" vertex="1">
          <mxGeometry x="1152" y="-527" width="156" height="60" as="geometry" />
        </mxCell>
        <mxCell id="vDcqL7bE7hWHBdpnDgDH-30" value="" style="edgeStyle=elbowEdgeStyle;elbow=vertical;endArrow=classic;html=1;curved=0;rounded=0;endSize=8;startSize=8;entryX=0.5;entryY=0;entryDx=0;entryDy=0;exitX=0.5;exitY=1;exitDx=0;exitDy=0;" parent="WIyWlLk6GJQsqaUBKTNV-1" source="vDcqL7bE7hWHBdpnDgDH-28" target="vDcqL7bE7hWHBdpnDgDH-29" edge="1">
          <mxGeometry width="50" height="50" relative="1" as="geometry">
            <mxPoint x="1602" y="-299" as="sourcePoint" />
            <mxPoint x="1652" y="-349" as="targetPoint" />
          </mxGeometry>
        </mxCell>
        <mxCell id="vDcqL7bE7hWHBdpnDgDH-31" value="" style="edgeStyle=elbowEdgeStyle;elbow=vertical;endArrow=classic;html=1;curved=0;rounded=0;endSize=8;startSize=8;exitX=0.5;exitY=1;exitDx=0;exitDy=0;entryX=0.5;entryY=0;entryDx=0;entryDy=0;" parent="WIyWlLk6GJQsqaUBKTNV-1" source="vDcqL7bE7hWHBdpnDgDH-28" target="vDcqL7bE7hWHBdpnDgDH-39" edge="1">
          <mxGeometry width="50" height="50" relative="1" as="geometry">
            <mxPoint x="1590" y="-629" as="sourcePoint" />
            <mxPoint x="1842" y="-569" as="targetPoint" />
          </mxGeometry>
        </mxCell>
        <mxCell id="vDcqL7bE7hWHBdpnDgDH-32" value="Quản lý hàng hóa" style="rounded=0;whiteSpace=wrap;html=1;" parent="WIyWlLk6GJQsqaUBKTNV-1" vertex="1">
          <mxGeometry x="1331" y="-362" width="156" height="60" as="geometry" />
        </mxCell>
        <mxCell id="vDcqL7bE7hWHBdpnDgDH-34" value="Quản lý khách hàng" style="rounded=0;whiteSpace=wrap;html=1;" parent="WIyWlLk6GJQsqaUBKTNV-1" vertex="1">
          <mxGeometry x="972" y="-176" width="156" height="60" as="geometry" />
        </mxCell>
        <mxCell id="vDcqL7bE7hWHBdpnDgDH-36" value="Quản lý đơn hàng" style="rounded=0;whiteSpace=wrap;html=1;" parent="WIyWlLk6GJQsqaUBKTNV-1" vertex="1">
          <mxGeometry x="974" y="-269" width="156" height="60" as="geometry" />
        </mxCell>
        <mxCell id="vDcqL7bE7hWHBdpnDgDH-37" value="Quản lý thông tin sản phẩm" style="rounded=0;whiteSpace=wrap;html=1;" parent="WIyWlLk6GJQsqaUBKTNV-1" vertex="1">
          <mxGeometry x="974" y="-362" width="156" height="60" as="geometry" />
        </mxCell>
        <mxCell id="vDcqL7bE7hWHBdpnDgDH-38" value="Thống kê, báo cáo" style="rounded=0;whiteSpace=wrap;html=1;" parent="WIyWlLk6GJQsqaUBKTNV-1" vertex="1">
          <mxGeometry x="1334" y="-269" width="156" height="60" as="geometry" />
        </mxCell>
        <mxCell id="vDcqL7bE7hWHBdpnDgDH-39" value="Khách hàng" style="rounded=0;whiteSpace=wrap;html=1;" parent="WIyWlLk6GJQsqaUBKTNV-1" vertex="1">
          <mxGeometry x="1883" y="-527" width="156" height="60" as="geometry" />
        </mxCell>
        <mxCell id="vDcqL7bE7hWHBdpnDgDH-43" value="Xem sản phẩm" style="rounded=0;whiteSpace=wrap;html=1;" parent="WIyWlLk6GJQsqaUBKTNV-1" vertex="1">
          <mxGeometry x="1672" y="-368" width="156" height="60" as="geometry" />
        </mxCell>
        <mxCell id="vDcqL7bE7hWHBdpnDgDH-44" value="Thêm vào giỏ hàng" style="rounded=0;whiteSpace=wrap;html=1;" parent="WIyWlLk6GJQsqaUBKTNV-1" vertex="1">
          <mxGeometry x="1672" y="-269" width="156" height="60" as="geometry" />
        </mxCell>
        <mxCell id="vDcqL7bE7hWHBdpnDgDH-45" value="Đặt hàng" style="rounded=0;whiteSpace=wrap;html=1;" parent="WIyWlLk6GJQsqaUBKTNV-1" vertex="1">
          <mxGeometry x="1672" y="-170" width="156" height="60" as="geometry" />
        </mxCell>
        <mxCell id="vDcqL7bE7hWHBdpnDgDH-46" value="Xem lịch sử đơn đặt hàng" style="rounded=0;whiteSpace=wrap;html=1;" parent="WIyWlLk6GJQsqaUBKTNV-1" vertex="1">
          <mxGeometry x="2094" y="-269" width="156" height="60" as="geometry" />
        </mxCell>
        <mxCell id="vDcqL7bE7hWHBdpnDgDH-47" value="Đổi trả" style="rounded=0;whiteSpace=wrap;html=1;" parent="WIyWlLk6GJQsqaUBKTNV-1" vertex="1">
          <mxGeometry x="2094" y="-368" width="156" height="60" as="geometry" />
        </mxCell>
        <mxCell id="vDcqL7bE7hWHBdpnDgDH-48" value="Quản lý tài khoản" style="rounded=0;whiteSpace=wrap;html=1;" parent="WIyWlLk6GJQsqaUBKTNV-1" vertex="1">
          <mxGeometry x="2094" y="-170" width="156" height="60" as="geometry" />
        </mxCell>
        <mxCell id="vDcqL7bE7hWHBdpnDgDH-58" value="Quản lý nhà cung cấp" style="rounded=0;whiteSpace=wrap;html=1;" parent="WIyWlLk6GJQsqaUBKTNV-1" vertex="1">
          <mxGeometry x="1335" y="-176" width="156" height="60" as="geometry" />
        </mxCell>
        <mxCell id="vDcqL7bE7hWHBdpnDgDH-61" value="" style="endArrow=none;html=1;rounded=0;entryX=0.5;entryY=1;entryDx=0;entryDy=0;" parent="WIyWlLk6GJQsqaUBKTNV-1" target="vDcqL7bE7hWHBdpnDgDH-29" edge="1">
          <mxGeometry width="50" height="50" relative="1" as="geometry">
            <mxPoint x="1227" y="-146" as="sourcePoint" />
            <mxPoint x="1562" y="-238" as="targetPoint" />
          </mxGeometry>
        </mxCell>
        <mxCell id="vDcqL7bE7hWHBdpnDgDH-63" value="" style="endArrow=none;html=1;rounded=0;entryX=0;entryY=0.5;entryDx=0;entryDy=0;exitX=1;exitY=0.5;exitDx=0;exitDy=0;" parent="WIyWlLk6GJQsqaUBKTNV-1" source="vDcqL7bE7hWHBdpnDgDH-34" target="vDcqL7bE7hWHBdpnDgDH-58" edge="1">
          <mxGeometry width="50" height="50" relative="1" as="geometry">
            <mxPoint x="1249" y="-95" as="sourcePoint" />
            <mxPoint x="1299" y="-145" as="targetPoint" />
          </mxGeometry>
        </mxCell>
        <mxCell id="vDcqL7bE7hWHBdpnDgDH-64" value="" style="endArrow=none;html=1;rounded=0;entryX=0;entryY=0.5;entryDx=0;entryDy=0;exitX=1;exitY=0.5;exitDx=0;exitDy=0;" parent="WIyWlLk6GJQsqaUBKTNV-1" source="vDcqL7bE7hWHBdpnDgDH-36" target="vDcqL7bE7hWHBdpnDgDH-38" edge="1">
          <mxGeometry width="50" height="50" relative="1" as="geometry">
            <mxPoint x="1129" y="-244" as="sourcePoint" />
            <mxPoint x="1294" y="-268" as="targetPoint" />
          </mxGeometry>
        </mxCell>
        <mxCell id="vDcqL7bE7hWHBdpnDgDH-65" value="" style="endArrow=none;html=1;rounded=0;entryX=0;entryY=0.5;entryDx=0;entryDy=0;exitX=1;exitY=0.5;exitDx=0;exitDy=0;" parent="WIyWlLk6GJQsqaUBKTNV-1" source="vDcqL7bE7hWHBdpnDgDH-37" target="vDcqL7bE7hWHBdpnDgDH-32" edge="1">
          <mxGeometry width="50" height="50" relative="1" as="geometry">
            <mxPoint x="1209" y="-288" as="sourcePoint" />
            <mxPoint x="1259" y="-338" as="targetPoint" />
          </mxGeometry>
        </mxCell>
        <mxCell id="vDcqL7bE7hWHBdpnDgDH-66" value="" style="endArrow=none;html=1;rounded=0;entryX=0;entryY=0.5;entryDx=0;entryDy=0;exitX=1;exitY=0.5;exitDx=0;exitDy=0;" parent="WIyWlLk6GJQsqaUBKTNV-1" source="vDcqL7bE7hWHBdpnDgDH-45" target="vDcqL7bE7hWHBdpnDgDH-48" edge="1">
          <mxGeometry width="50" height="50" relative="1" as="geometry">
            <mxPoint x="1989" y="-256" as="sourcePoint" />
            <mxPoint x="2039" y="-306" as="targetPoint" />
          </mxGeometry>
        </mxCell>
        <mxCell id="vDcqL7bE7hWHBdpnDgDH-67" value="" style="endArrow=none;html=1;rounded=0;entryX=1;entryY=0.5;entryDx=0;entryDy=0;exitX=0;exitY=0.5;exitDx=0;exitDy=0;" parent="WIyWlLk6GJQsqaUBKTNV-1" source="vDcqL7bE7hWHBdpnDgDH-46" target="vDcqL7bE7hWHBdpnDgDH-44" edge="1">
          <mxGeometry width="50" height="50" relative="1" as="geometry">
            <mxPoint x="1904" y="-241" as="sourcePoint" />
            <mxPoint x="1954" y="-291" as="targetPoint" />
          </mxGeometry>
        </mxCell>
        <mxCell id="vDcqL7bE7hWHBdpnDgDH-68" value="" style="endArrow=none;html=1;rounded=0;entryX=0;entryY=0.5;entryDx=0;entryDy=0;exitX=1;exitY=0.5;exitDx=0;exitDy=0;" parent="WIyWlLk6GJQsqaUBKTNV-1" source="vDcqL7bE7hWHBdpnDgDH-43" target="vDcqL7bE7hWHBdpnDgDH-47" edge="1">
          <mxGeometry width="50" height="50" relative="1" as="geometry">
            <mxPoint x="1902" y="-237" as="sourcePoint" />
            <mxPoint x="1952" y="-287" as="targetPoint" />
          </mxGeometry>
        </mxCell>
        <mxCell id="vDcqL7bE7hWHBdpnDgDH-69" value="" style="endArrow=none;html=1;rounded=0;entryX=0.5;entryY=1;entryDx=0;entryDy=0;" parent="WIyWlLk6GJQsqaUBKTNV-1" target="vDcqL7bE7hWHBdpnDgDH-39" edge="1">
          <mxGeometry width="50" height="50" relative="1" as="geometry">
            <mxPoint x="1959" y="-140" as="sourcePoint" />
            <mxPoint x="1956" y="-409" as="targetPoint" />
          </mxGeometry>
        </mxCell>
        <mxCell id="vDcqL7bE7hWHBdpnDgDH-75" style="edgeStyle=orthogonalEdgeStyle;rounded=0;orthogonalLoop=1;jettySize=auto;html=1;exitX=0.5;exitY=1;exitDx=0;exitDy=0;" parent="WIyWlLk6GJQsqaUBKTNV-1" source="vDcqL7bE7hWHBdpnDgDH-70" target="vDcqL7bE7hWHBdpnDgDH-71" edge="1">
          <mxGeometry relative="1" as="geometry" />
        </mxCell>
        <mxCell id="vDcqL7bE7hWHBdpnDgDH-70" value="Quản lý nhà cung cấp" style="rounded=0;whiteSpace=wrap;html=1;" parent="WIyWlLk6GJQsqaUBKTNV-1" vertex="1">
          <mxGeometry x="-601" y="1715" width="156" height="60" as="geometry" />
        </mxCell>
        <mxCell id="vDcqL7bE7hWHBdpnDgDH-71" value="Thêm, xóa, sửa, cập nhật thông tin nhà cung cấp" style="rounded=0;whiteSpace=wrap;html=1;" parent="WIyWlLk6GJQsqaUBKTNV-1" vertex="1">
          <mxGeometry x="-601" y="1837" width="156" height="60" as="geometry" />
        </mxCell>
        <mxCell id="AeRODau3CtbDt2xu83sy-0" value="Quên mật khẩu" style="rounded=0;whiteSpace=wrap;html=1;" vertex="1" parent="WIyWlLk6GJQsqaUBKTNV-1">
          <mxGeometry x="2793" y="1509" width="156" height="60" as="geometry" />
        </mxCell>
        <mxCell id="AeRODau3CtbDt2xu83sy-2" value="Hủy đơn" style="rounded=0;whiteSpace=wrap;html=1;" vertex="1" parent="WIyWlLk6GJQsqaUBKTNV-1">
          <mxGeometry x="1916" y="1407" width="156" height="60" as="geometry" />
        </mxCell>
      </root>
    </mxGraphModel>
  </diagram>
</mxfile>
